<?xml version="1.0" encoding="utf-8"?>
<!-- Generator: Adobe Illustrator 27.1.1, SVG Export Plug-In . SVG Version: 6.00 Build 0)  -->
<svg version="1.1" id="Lager_1" xmlns="http://www.w3.org/2000/svg" xmlns:xlink="http://www.w3.org/1999/xlink" x="0px" y="0px"
	 viewBox="0 0 1630.73 704.59" style="enable-background:new 0 0 1630.73 704.59;" xml:space="preserve">
<style type="text/css">
	.st0{fill:#FFFFFF;}
	.st1{fill:none;}
</style>
<g>
	<path class="st0" d="M219.73,212.77v73c-12.54-15.3-23.77-25.79-33.69-31.49c-9.77-5.86-21.24-8.79-34.42-8.79
		c-20.67,0-37.84,7.24-51.51,21.73c-13.67,14.49-20.51,32.63-20.51,54.44c0,22.3,6.59,40.61,19.78,54.93
		c13.34,14.32,30.35,21.48,51.03,21.48c13.18,0,24.82-2.85,34.91-8.54c9.77-5.53,21.24-16.27,34.42-32.23v72.51
		c-22.3,11.55-44.6,17.33-66.89,17.33c-36.79,0-67.55-11.88-92.29-35.64c-24.74-23.93-37.11-53.63-37.11-89.11
		c0-35.48,12.53-65.43,37.6-89.84c25.06-24.41,55.82-36.62,92.29-36.62C176.76,195.92,198.89,201.54,219.73,212.77z"/>
	<path class="st0" d="M423.74,202.51h55.18v237.79h-55.18v-24.9c-22.62,21.16-46.96,31.74-73,31.74
		c-32.88,0-60.06-11.88-81.54-35.64c-21.32-24.25-31.98-54.52-31.98-90.82c0-35.64,10.66-65.35,31.98-89.11
		c21.32-23.76,48.01-35.64,80.08-35.64c27.67,0,52.49,11.39,74.46,34.18V202.51z M293.37,320.68c0,22.79,6.1,41.34,18.31,55.66
		c12.53,14.49,28.32,21.73,47.36,21.73c20.34,0,36.78-7,49.32-21c12.53-14.48,18.8-32.88,18.8-55.18c0-22.3-6.27-40.69-18.8-55.18
		c-12.54-14.16-28.81-21.24-48.83-21.24c-18.88,0-34.67,7.16-47.36,21.48C299.63,281.46,293.37,299.36,293.37,320.68z"/>
	<path class="st0" d="M523.75,202.51h54.93v21.24c10.09-10.58,19.04-17.82,26.86-21.73c7.97-4.07,17.41-6.1,28.32-6.1
		c14.48,0,29.62,4.72,45.41,14.16l-25.15,50.29c-10.42-7.48-20.59-11.23-30.52-11.23c-29.95,0-44.92,22.62-44.92,67.87v123.29
		h-54.93V202.51z"/>
	<path class="st0" d="M670.64,319.7c0-34.34,12.29-63.56,36.87-87.65c24.57-24.09,54.52-36.13,89.84-36.13
		c35.48,0,65.59,12.13,90.33,36.38c24.41,24.25,36.62,54.04,36.62,89.36c0,35.64-12.29,65.51-36.87,89.6
		c-24.74,23.93-55.1,35.89-91.06,35.89c-35.64,0-65.51-12.21-89.6-36.62C682.68,386.44,670.64,356.16,670.64,319.7z M726.79,320.68
		c0,23.77,6.35,42.56,19.04,56.4c13.02,14,30.19,21,51.51,21c21.48,0,38.65-6.92,51.51-20.75c12.86-13.83,19.29-32.31,19.29-55.42
		c0-23.11-6.43-41.58-19.29-55.42c-13.02-14-30.19-21-51.51-21c-21,0-38.01,7-51.03,21C733.3,280.48,726.79,298.55,726.79,320.68z"
		/>
	<path class="st0" d="M1012.84,27.95v412.35h-54.93V27.95H1012.84z"/>
	<path class="st0" d="M1049.62,103.64c0-9.6,3.5-17.9,10.5-24.9c7-7,15.38-10.5,25.15-10.5c9.93,0,18.39,3.5,25.39,10.5
		c7,6.84,10.5,15.22,10.5,25.15c0,9.93-3.5,18.39-10.5,25.39c-6.84,7-15.22,10.5-25.15,10.5c-9.93,0-18.39-3.5-25.39-10.5
		C1053.12,122.28,1049.62,113.73,1049.62,103.64z M1112.85,202.51v237.79h-54.93V202.51H1112.85z"/>
	<path class="st0" d="M1157.93,202.51h55.18v21.97c19.2-19.04,40.85-28.56,64.94-28.56c27.67,0,49.23,8.71,64.7,26.12
		c13.34,14.81,20.02,38.98,20.02,72.51v145.75h-55.18V307.5c0-23.44-3.26-39.63-9.77-48.58c-6.35-9.11-17.91-13.67-34.67-13.67
		c-18.23,0-31.17,6.02-38.82,18.07c-7.49,11.88-11.23,32.63-11.23,62.26v114.75h-55.18V202.51z"/>
	<path class="st0" d="M1624.15,334.35h-170.41c1.46,19.53,7.81,35.08,19.04,46.63c11.23,11.39,25.63,17.09,43.21,17.09
		c13.67,0,24.98-3.25,33.94-9.77c8.79-6.51,18.8-18.55,30.03-36.13l46.39,25.88c-7.16,12.21-14.73,22.67-22.71,31.37
		c-7.98,8.71-16.52,15.87-25.63,21.48c-9.12,5.62-18.96,9.72-29.54,12.33c-10.58,2.6-22.06,3.91-34.42,3.91
		c-35.48,0-63.96-11.39-85.45-34.18c-21.48-22.95-32.23-53.38-32.23-91.31c0-37.6,10.41-68.03,31.25-91.31
		c21-22.95,48.83-34.42,83.5-34.42c34.99,0,62.66,11.15,83.01,33.45c20.18,22.14,30.27,52.82,30.27,92.04L1624.15,334.35z
		 M1567.76,289.43c-7.65-29.3-26.12-43.95-55.42-43.95c-6.68,0-12.94,1.02-18.8,3.05c-5.86,2.04-11.19,4.97-15.99,8.79
		c-4.8,3.83-8.91,8.42-12.33,13.79s-6.02,11.47-7.81,18.31H1567.76z"/>
	<path class="st0" d="M123.4,520.9v36.06c-6.19-7.56-11.74-12.74-16.64-15.56c-4.82-2.89-10.49-4.34-17.01-4.34
		c-10.21,0-18.69,3.58-25.45,10.73s-10.13,16.12-10.13,26.89c0,11.02,3.26,20.06,9.77,27.14c6.59,7.08,14.99,10.61,25.21,10.61
		c6.51,0,12.26-1.41,17.25-4.22c4.82-2.73,10.49-8.04,17.01-15.92v35.82c-11.02,5.71-22.03,8.56-33.05,8.56
		c-18.17,0-33.37-5.87-45.59-17.61c-12.22-11.82-18.33-26.49-18.33-44.02c0-17.53,6.19-32.32,18.57-44.38
		c12.38-12.06,27.58-18.09,45.59-18.09C102.18,512.58,113.11,515.36,123.4,520.9z"/>
	<path class="st0" d="M140.2,573.73c0-16.96,6.07-31.4,18.21-43.3c12.14-11.9,26.93-17.85,44.38-17.85
		c17.53,0,32.4,5.99,44.62,17.97c12.06,11.98,18.09,26.7,18.09,44.14c0,17.61-6.07,32.36-18.21,44.26
		c-12.22,11.82-27.22,17.73-44.99,17.73c-17.61,0-32.36-6.03-44.26-18.09C146.15,606.7,140.2,591.74,140.2,573.73z M167.94,574.21
		c0,11.74,3.14,21.03,9.41,27.86c6.43,6.92,14.91,10.37,25.45,10.37c10.61,0,19.1-3.42,25.45-10.25c6.35-6.83,9.53-15.96,9.53-27.38
		c0-11.42-3.18-20.54-9.53-27.38c-6.43-6.91-14.92-10.37-25.45-10.37c-10.37,0-18.77,3.46-25.21,10.37
		C171.15,554.35,167.94,563.28,167.94,574.21z"/>
	<path class="st0" d="M290.26,515.84h27.14v10.85c5.23-5.47,9.69-9.17,13.39-11.1c3.94-2.01,8.88-3.01,14.83-3.01
		c13.27,0,23.76,5.79,31.48,17.37c8.52-11.58,20.06-17.37,34.61-17.37c26.45,0,39.68,16.04,39.68,48.12v72.6h-27.26v-65.25
		c0-11.26-1.37-19.22-4.1-23.88c-2.82-4.74-7.44-7.12-13.87-7.12c-7.48,0-12.93,2.82-16.34,8.44c-3.42,5.63-5.13,14.67-5.13,27.14
		v60.67h-27.26v-64.89c0-20.9-6.03-31.36-18.09-31.36c-7.64,0-13.21,2.86-16.7,8.56c-3.5,5.71-5.25,14.71-5.25,27.02v60.67h-27.14
		V515.84z"/>
	<path class="st0" d="M481.69,515.84h27.14v10.85c5.23-5.47,9.69-9.17,13.39-11.1c3.94-2.01,8.88-3.01,14.83-3.01
		c13.27,0,23.76,5.79,31.48,17.37c8.52-11.58,20.06-17.37,34.61-17.37c26.45,0,39.68,16.04,39.68,48.12v72.6h-27.26v-65.25
		c0-11.26-1.37-19.22-4.1-23.88c-2.82-4.74-7.44-7.12-13.87-7.12c-7.48,0-12.93,2.82-16.34,8.44c-3.42,5.63-5.13,14.67-5.13,27.14
		v60.67h-27.26v-64.89c0-20.9-6.03-31.36-18.09-31.36c-7.64,0-13.21,2.86-16.7,8.56c-3.5,5.71-5.25,14.71-5.25,27.02v60.67h-27.14
		V515.84z"/>
	<path class="st0" d="M700.25,515.84v67.42c0,19.46,7.68,29.19,23.04,29.19c15.36,0,23.04-9.73,23.04-29.19v-67.42h27.14v68.02
		c0,9.41-1.17,17.53-3.5,24.36c-2.25,6.11-6.15,11.62-11.7,16.52c-9.17,7.96-20.83,11.94-34.98,11.94
		c-14.07,0-25.69-3.98-34.85-11.94c-5.63-4.9-9.61-10.41-11.94-16.52c-2.25-5.47-3.38-13.59-3.38-24.36v-68.02H700.25z"/>
	<path class="st0" d="M803.76,515.84h27.26v10.85c9.49-9.41,20.18-14.11,32.08-14.11c13.67,0,24.32,4.3,31.96,12.9
		c6.59,7.32,9.89,19.26,9.89,35.82v72h-27.26V567.7c0-11.58-1.61-19.58-4.82-24c-3.13-4.5-8.85-6.75-17.12-6.75
		c-9.01,0-15.4,2.98-19.18,8.93c-3.7,5.87-5.55,16.12-5.55,30.75v56.68h-27.26V515.84z"/>
	<path class="st0" d="M931.15,466.99c0-4.74,1.73-8.84,5.19-12.3c3.46-3.46,7.6-5.19,12.42-5.19c4.9,0,9.08,1.73,12.54,5.19
		c3.46,3.38,5.19,7.52,5.19,12.42c0,4.91-1.73,9.09-5.19,12.54c-3.38,3.46-7.52,5.19-12.42,5.19s-9.09-1.73-12.54-5.19
		C932.88,476.2,931.15,471.98,931.15,466.99z M962.38,515.84v117.47h-27.14V515.84H962.38z"/>
	<path class="st0" d="M1084.22,520.9v36.06c-6.19-7.56-11.74-12.74-16.64-15.56c-4.82-2.89-10.49-4.34-17-4.34
		c-10.21,0-18.69,3.58-25.45,10.73S1015,563.92,1015,574.69c0,11.02,3.26,20.06,9.77,27.14c6.59,7.08,15,10.61,25.21,10.61
		c6.51,0,12.26-1.41,17.25-4.22c4.82-2.73,10.49-8.04,17.01-15.92v35.82c-11.02,5.71-22.03,8.56-33.05,8.56
		c-18.17,0-33.37-5.87-45.59-17.61c-12.22-11.82-18.33-26.49-18.33-44.02c0-17.53,6.19-32.32,18.57-44.38
		c12.38-12.06,27.58-18.09,45.59-18.09C1063,512.58,1073.93,515.36,1084.22,520.9z"/>
	<path class="st0" d="M1193.16,515.84h27.26v117.47h-27.26v-12.3c-11.18,10.45-23.2,15.68-36.06,15.68
		c-16.24,0-29.67-5.87-40.28-17.61c-10.54-11.98-15.8-26.93-15.8-44.87c0-17.61,5.26-32.28,15.8-44.02
		c10.53-11.74,23.72-17.61,39.56-17.61c13.67,0,25.93,5.63,36.78,16.88V515.84z M1128.75,574.21c0,11.26,3.02,20.42,9.04,27.5
		c6.19,7.16,13.99,10.73,23.4,10.73c10.05,0,18.17-3.46,24.36-10.37c6.19-7.15,9.29-16.24,9.29-27.26s-3.1-20.1-9.29-27.26
		c-6.19-6.99-14.23-10.49-24.12-10.49c-9.33,0-17.12,3.54-23.4,10.61C1131.85,554.83,1128.75,563.68,1128.75,574.21z"/>
	<path class="st0" d="M1278.7,541.17v92.14h-27.14v-92.14h-11.58v-25.33h11.58v-43.06h27.14v43.06h21.11v25.33H1278.7z"/>
	<path class="st0" d="M1310.2,466.99c0-4.74,1.73-8.84,5.19-12.3c3.46-3.46,7.6-5.19,12.42-5.19c4.9,0,9.09,1.73,12.54,5.19
		c3.46,3.38,5.19,7.52,5.19,12.42c0,4.91-1.73,9.09-5.19,12.54c-3.38,3.46-7.52,5.19-12.42,5.19c-4.91,0-9.09-1.73-12.54-5.19
		C1311.93,476.2,1310.2,471.98,1310.2,466.99z M1341.44,515.84v117.47h-27.14V515.84H1341.44z"/>
	<path class="st0" d="M1366.31,573.73c0-16.96,6.07-31.4,18.21-43.3c12.14-11.9,26.94-17.85,44.38-17.85
		c17.53,0,32.4,5.99,44.62,17.97c12.06,11.98,18.09,26.7,18.09,44.14c0,17.61-6.07,32.36-18.21,44.26
		c-12.22,11.82-27.22,17.73-44.99,17.73c-17.61,0-32.36-6.03-44.26-18.09C1372.26,606.7,1366.31,591.74,1366.31,573.73z
		 M1394.05,574.21c0,11.74,3.14,21.03,9.41,27.86c6.43,6.92,14.91,10.37,25.45,10.37c10.61,0,19.1-3.42,25.45-10.25
		c6.35-6.83,9.53-15.96,9.53-27.38c0-11.42-3.18-20.54-9.53-27.38c-6.43-6.91-14.92-10.37-25.45-10.37
		c-10.37,0-18.77,3.46-25.21,10.37C1397.26,554.35,1394.05,563.28,1394.05,574.21z"/>
	<path class="st0" d="M1516.37,515.84h27.26v10.85c9.49-9.41,20.18-14.11,32.08-14.11c13.67,0,24.32,4.3,31.96,12.9
		c6.59,7.32,9.89,19.26,9.89,35.82v72h-27.26V567.7c0-11.58-1.61-19.58-4.82-24c-3.13-4.5-8.84-6.75-17.12-6.75
		c-9.01,0-15.4,2.98-19.18,8.93c-3.7,5.87-5.55,16.12-5.55,30.75v56.68h-27.26V515.84z"/>
</g>
<rect x="4.89" y="651.84" class="st1" width="376.47" height="13.24"/>
</svg>
